<svg xmlns="http://www.w3.org/2000/svg" viewBox="0 0 512 512">
	<!-- coer91.styles -->
	<path d="M 240.841 50.054 C 212.956 53.895, 186.885 73.661, 175.376 99.685 C 168.556 115.106, 166.735 137.263, 170.953 153.500 C 180.414 189.916, 210.900 214.993, 247.843 216.748 C 254.988 217.088, 261.834 216.818, 266.343 216.021 C 297.165 210.566, 322.033 189.066, 332.012 159.244 C 338.058 141.177, 337.229 119.045, 329.841 101.280 C 319.495 76.402, 297.177 57.592, 270.853 51.564 C 262.300 49.606, 248.966 48.934, 240.841 50.054 M 299.487 221.078 C 272.338 236.107, 237.108 236.622, 208.470 222.408 C 197.651 217.038, 196.817 217.014, 180.759 221.609 C 161.652 227.076, 142.656 235.333, 124.464 246.078 C 113.712 252.429, 109.130 256.503, 105.772 262.696 C 102.052 269.559, 101.060 274.139, 91.957 326.500 C 84.822 367.538, 83.925 374.007, 84.881 377.500 C 87.003 385.253, 89.356 387.543, 108.025 400.016 C 117.980 406.669, 126.773 412.359, 127.563 412.663 C 128.802 413.138, 129 405.043, 129 353.803 L 129 294.393 131.635 289.105 C 134.624 283.108, 139.760 278.876, 146.202 277.105 C 149.412 276.222, 176.820 275.996, 254.500 276.212 L 358.500 276.500 362.643 278.716 C 367.882 281.518, 373.337 287.843, 374.839 292.858 C 375.661 295.600, 376 313.278, 376 353.366 C 376 384.515, 376.273 410, 376.607 410 C 376.941 410, 385.958 404.513, 396.645 397.807 C 417.842 384.506, 420.021 382.364, 419.970 374.882 C 419.954 372.472, 416.185 348.346, 411.596 321.268 C 402.411 267.074, 402.026 265.694, 393.384 256.082 C 382.410 243.876, 343.273 225.478, 314.914 219.193 L 306.329 217.290 299.487 221.078 M 145.343 289.056 C 138.900 293.184, 139 291.986, 139 365.020 L 139 431 118.876 431 L 98.752 431 99.212 436.541 C 99.743 442.944, 102.062 446.694, 107.071 449.248 C 110.288 450.889, 119.284 450.997, 252.500 450.997 C 385.716 450.997, 394.712 450.889, 397.929 449.248 C 402.769 446.780, 404.860 443.382, 405.618 436.750 L 406.275 431 386.165 431 L 366.054 431 365.777 363.750 C 365.514 299.902, 365.405 296.342, 363.614 293.386 C 359.477 286.552, 367.278 286.998, 252.346 287.017 C 149.835 287.033, 148.459 287.060, 145.343 289.056 M 248.780 360.750 C 242.925 374.913, 237.432 388.167, 236.573 390.205 L 235.010 393.911 239.660 395.968 C 242.217 397.099, 244.472 397.861, 244.671 397.662 C 245.220 397.114, 269 339.720, 269 338.945 C 269 338.357, 261.281 335, 259.929 335 C 259.651 335, 254.634 346.587, 248.780 360.750 M 202.996 350.504 L 188.517 365.009 203.252 379.744 L 217.988 394.479 221.727 390.740 L 225.466 387 214.500 376 L 203.534 365 214.481 354.019 L 225.429 343.037 222.018 339.519 C 220.142 337.583, 218.353 336, 218.041 336 C 217.729 336, 210.959 342.527, 202.996 350.504 M 282.982 339.519 L 279.571 343.037 290.519 354.019 L 301.466 365 290.500 376 L 279.534 387 283.273 390.740 L 287.012 394.479 301.748 379.744 L 316.483 365.009 302.004 350.504 C 294.041 342.527, 287.271 336, 286.959 336 C 286.647 336, 284.858 337.583, 282.982 339.519" stroke="none" fill="#000000" fill-rule="evenodd"/>
</svg>