<svg xmlns="http://www.w3.org/2000/svg" viewBox="0 0 348 348">
	<!-- coer91.styles -->
	<path d="M 167.330 14.901 C 163.372 15.917, 162.061 16.607, 131.500 33.754 C 96.006 53.670, 52.545 78.090, 45.531 82.060 C 37.357 86.686, 32.628 91.706, 30.115 98.423 C 28.036 103.979, 28 105.258, 28 174 C 28 242.742, 28.036 244.021, 30.115 249.577 C 33.095 257.542, 37.509 261.431, 54.048 270.664 C 61.997 275.101, 77.050 283.571, 87.500 289.485 C 119.621 307.663, 155.605 327.764, 161.189 330.648 C 168.638 334.495, 179.234 334.583, 186.500 330.858 C 191.559 328.264, 237.780 302.389, 294.498 270.399 C 310.613 261.310, 314.935 257.462, 317.885 249.577 C 319.964 244.021, 320 242.742, 320 174 C 320 106.330, 319.935 103.901, 317.983 98.685 C 315.008 90.732, 310.874 86.830, 297.157 79.024 C 290.369 75.161, 284.656 72, 284.463 72 C 284.271 72, 279.925 69.571, 274.806 66.601 C 260.392 58.240, 192.066 19.974, 186.844 17.339 C 181.749 14.767, 172.402 13.600, 167.330 14.901 M 161.531 91.045 C 124.720 96.827, 95.859 126.559, 90.903 163.805 C 88.773 179.813, 91.351 194.677, 99.004 210.500 C 107.550 228.168, 119.761 240.375, 137.500 248.981 C 151.298 255.675, 158.683 257.373, 174 257.373 C 188.886 257.373, 196.439 255.708, 209.500 249.548 C 220.084 244.557, 229.028 238.034, 235.976 230.237 L 240.979 224.624 229.240 217.713 C 222.783 213.912, 215.786 209.923, 213.690 208.850 L 209.880 206.898 206.367 209.983 C 177.496 235.331, 133.015 219.653, 126.406 181.798 C 125.258 175.219, 125.258 172.781, 126.406 166.202 C 132.813 129.504, 175.928 113.271, 204.714 136.718 L 210.013 141.034 213.757 139.116 C 215.815 138.061, 222.783 134.088, 229.240 130.287 L 240.979 123.376 235.976 117.763 C 225.907 106.465, 208.761 96.227, 193.775 92.563 C 185.499 90.540, 169.534 89.788, 161.531 91.045 M 243 146 L 243 153 236 153 L 229 153 229 160 L 229 167 236 167 L 243 167 243 174 L 243 181 236 181 L 229 181 229 188 L 229 195 236 195 L 243 195 243 202 L 243 209 250.500 209 L 258 209 258 202 L 258 195 264.500 195 L 271 195 271 202 L 271 209 278.500 209 L 286 209 286 202 L 286 195 292.500 195 L 299 195 299 188 L 299 181 292.500 181 L 286 181 286 174 L 286 167 292.750 167.002 L 299.500 167.005 299.168 160.002 L 298.836 153 292.418 153 L 286 153 286 146 L 286 139 278.500 139 L 271 139 271 146 L 271 153 264.500 153 L 258 153 258 146 L 258 139 250.500 139 L 243 139 243 146 M 258 174 L 258 181 264.500 181 L 271 181 271 174 L 271 167 264.500 167 L 258 167 258 174" stroke="none" fill="#000000" fill-rule="evenodd"/>
</svg>