<svg xmlns="http://www.w3.org/2000/svg" viewBox="0 0 512 512">
	<!-- coer91.styles -->
	<path d="M 172 48.868 C 128.275 64.129, 79.675 81.076, 64 86.527 C 32.985 97.312, 30.993 98.421, 31.009 104.896 C 31.014 106.878, 38.659 171.048, 47.997 247.495 C 61.791 360.418, 65.306 386.933, 66.738 388.849 C 67.754 390.208, 107.345 412.330, 160.258 441.103 C 232.877 480.593, 252.763 491, 255.597 491 C 258.442 491, 278.202 480.570, 351.721 440.263 C 402.620 412.357, 444.882 388.584, 445.636 387.433 C 446.916 385.479, 481 111.771, 481 103.445 C 481 96.283, 485.103 97.927, 367.566 58.002 C 300.676 35.281, 257.256 21.023, 255.066 21.060 C 253.105 21.093, 215.725 33.607, 172 48.868 M 193.728 205.750 C 159.834 278.763, 130.070 342.887, 127.584 348.250 L 123.066 358 145.819 358 L 168.572 358 182.573 327.750 L 196.574 297.500 255.976 297.500 L 315.379 297.500 329.410 327.750 L 343.442 358 366.188 358 L 388.934 358 384.416 348.250 C 307.853 183.054, 256.509 73, 256 73 C 255.644 73, 227.621 132.737, 193.728 205.750 M 235.791 212.753 L 216.081 255.500 236.041 255.771 C 247.018 255.920, 264.982 255.920, 275.959 255.771 L 295.919 255.500 276.209 212.753 C 265.369 189.242, 256.275 170.005, 256 170.005 C 255.725 170.005, 246.631 189.242, 235.791 212.753" stroke="none" fill="#000000" fill-rule="evenodd"/>
</svg>