<svg xmlns="http://www.w3.org/2000/svg" viewBox="0 0 1500 1244">
	<!-- coer91.styles -->
	<path d="M 670.500 14.047 C 435.031 14.751, 405.632 15.171, 386 18.106 C 356.932 22.453, 329.929 29.394, 303.500 39.313 C 277.976 48.893, 245.628 64.467, 231.200 74.122 C 228.835 75.705, 226.726 77, 226.513 77 C 225.795 77, 200.799 94.400, 197.079 97.489 C 166.857 122.588, 144.580 145.255, 130.237 165.500 C 124.769 173.218, 113 190.931, 113 191.442 C 113 191.658, 111.006 195.208, 108.569 199.330 C 104.468 206.267, 92 231.320, 92 232.625 C 92 232.940, 91.347 234.616, 90.548 236.349 C 74.832 270.457, 65.049 319.030, 65.016 363.121 C 64.972 420.672, 75.755 462.138, 104.249 514 C 105.911 517.025, 108.560 521.435, 110.135 523.800 C 111.711 526.165, 113 528.335, 113 528.622 C 113 528.908, 113.563 529.749, 114.250 530.489 C 114.938 531.229, 117.525 534.832, 120 538.495 C 135.752 561.811, 156.028 582.768, 184 604.646 C 197.349 615.086, 206.171 620.515, 227.500 631.413 C 252.302 644.085, 265.791 649.147, 301 658.998 C 330.475 667.244, 361.562 668.394, 585.500 669.523 C 691.657 670.058, 708 670.367, 708 671.846 C 708 672.223, 705.862 673.969, 703.250 675.725 C 694.321 681.729, 690.452 684.501, 686.477 687.746 C 682.760 690.780, 675.577 696.420, 643.487 721.500 C 636.450 727, 630.199 731.954, 629.596 732.509 C 625.759 736.038, 612.087 747, 611.522 747 C 610.944 747, 602.546 753.404, 601 755.024 C 600.725 755.312, 597.352 758.012, 593.505 761.024 C 589.658 764.036, 585.608 767.254, 584.505 768.175 C 583.402 769.096, 578.403 773.146, 573.395 777.175 C 568.387 781.204, 557.450 790.013, 549.090 796.750 C 540.731 803.487, 533.574 809, 533.186 809 C 532.797 809, 531.359 810.032, 529.990 811.293 C 528.620 812.554, 525.025 815.524, 522 817.893 C 518.975 820.262, 514.925 823.477, 513 825.038 C 507.743 829.300, 494.776 839.914, 492.495 841.822 C 491.392 842.745, 487.342 845.964, 483.495 848.976 C 479.648 851.988, 476.275 854.699, 476 855 C 475.725 855.301, 472.350 858.001, 468.500 861 C 464.650 863.999, 461.275 866.719, 461 867.046 C 460.725 867.373, 457.827 869.598, 454.559 871.992 C 451.292 874.386, 447.692 877.135, 446.559 878.100 C 444.792 879.606, 433.881 888.624, 427.495 893.857 C 426.392 894.761, 422.342 897.969, 418.495 900.987 C 414.648 904.005, 410.912 907.036, 410.194 907.722 C 409.475 908.408, 406.100 911.100, 402.694 913.704 C 399.287 916.307, 395.912 919.007, 395.194 919.704 C 394.475 920.400, 391.100 923.093, 387.694 925.688 C 384.287 928.283, 381.275 930.691, 381 931.039 C 380.725 931.386, 379.774 932.082, 378.887 932.585 C 378 933.088, 375.300 935.157, 372.887 937.183 C 367.991 941.294, 351.831 954.340, 330 971.807 C 322.025 978.188, 312.451 986.016, 308.724 989.204 C 304.998 992.392, 301.618 995, 301.214 995 C 300.810 995, 299.359 996.016, 297.990 997.259 C 296.620 998.501, 292.350 1001.978, 288.500 1004.985 C 284.650 1007.992, 281.275 1010.699, 281 1011 C 280.725 1011.301, 277.350 1014.001, 273.500 1017 C 269.650 1019.999, 266.275 1022.699, 266 1023 C 265.725 1023.301, 262.359 1026.012, 258.519 1029.024 C 254.680 1032.036, 250.819 1035.175, 249.941 1036 C 247.722 1038.083, 244.616 1040.618, 236.495 1046.976 C 232.648 1049.988, 229.275 1052.719, 229 1053.046 C 228.725 1053.373, 225.800 1055.602, 222.500 1058 C 219.200 1060.398, 216.275 1062.642, 216 1062.986 C 215.725 1063.330, 209.650 1068.262, 202.500 1073.946 C 195.350 1079.630, 189.275 1084.561, 189 1084.905 C 188.725 1085.248, 184 1089.122, 178.500 1093.514 C 173 1097.906, 168.275 1101.736, 168 1102.024 C 167.725 1102.312, 164.350 1105.001, 160.500 1108 C 156.650 1110.999, 153.275 1113.719, 153 1114.046 C 152.725 1114.373, 149.827 1116.598, 146.559 1118.992 C 143.292 1121.386, 139.692 1124.113, 138.559 1125.052 C 137.427 1125.990, 132.225 1130.318, 127 1134.668 C 121.775 1139.019, 108.500 1149.751, 97.500 1158.518 C 86.500 1167.284, 77.275 1174.692, 77 1174.979 C 76.725 1175.265, 69.759 1180.900, 61.519 1187.500 C 53.280 1194.100, 45.630 1200.249, 44.519 1201.164 C 43.409 1202.079, 39.125 1205.606, 35 1209 C 30.875 1212.394, 26.600 1215.921, 25.500 1216.837 C 24.400 1217.753, 21.250 1220.302, 18.500 1222.502 C 11.641 1227.987, 11.487 1228.373, 15.780 1229.324 C 21.144 1230.513, 137.868 1231.794, 250.820 1231.905 L 348.139 1232 356.819 1225.250 C 367.150 1217.215, 367.369 1217.043, 372.574 1212.812 C 374.814 1210.990, 378.414 1208.076, 380.574 1206.335 C 385.323 1202.506, 408.828 1184.178, 418.433 1176.815 C 422.246 1173.892, 432.180 1166.061, 440.508 1159.414 C 448.837 1152.767, 460.567 1143.557, 466.575 1138.948 C 472.584 1134.339, 477.725 1130.317, 478 1130.010 C 478.985 1128.911, 491.554 1119.369, 494.205 1117.708 C 495.693 1116.775, 497.718 1115.198, 498.705 1114.201 C 499.692 1113.205, 502.524 1110.840, 504.997 1108.945 C 510.567 1104.677, 512.452 1103.188, 516.393 1099.937 C 518.102 1098.527, 522.425 1095.173, 526 1092.484 C 529.575 1089.794, 532.725 1087.325, 533 1086.998 C 533.275 1086.670, 540.250 1081.146, 548.500 1074.722 C 556.750 1068.298, 564.625 1062.125, 566 1061.004 C 567.375 1059.883, 572.775 1055.742, 578 1051.800 C 583.225 1047.859, 587.725 1044.343, 588 1043.987 C 588.275 1043.630, 594.350 1038.878, 601.500 1033.426 C 608.650 1027.974, 615.400 1022.764, 616.500 1021.848 C 617.600 1020.932, 621.425 1017.748, 625 1014.771 C 628.575 1011.795, 635.322 1006.466, 639.994 1002.930 C 644.665 999.393, 648.940 996.145, 649.494 995.710 C 650.047 995.276, 654.100 992.207, 658.500 988.891 C 662.900 985.575, 667.400 982.099, 668.500 981.168 C 669.600 980.237, 674.550 976.338, 679.500 972.505 C 684.450 968.672, 688.950 965.034, 689.500 964.422 C 690.050 963.810, 693.425 961.108, 697 958.417 C 700.575 955.726, 704.400 952.762, 705.500 951.831 C 708.729 949.097, 728.306 933.917, 735.400 928.646 C 738.993 925.977, 742.819 923.052, 743.903 922.146 C 744.986 921.241, 748.713 918.257, 752.186 915.515 C 755.659 912.774, 758.725 910.274, 759 909.961 C 759.275 909.648, 765.350 904.935, 772.500 899.486 C 779.650 894.038, 785.725 889.301, 786 888.960 C 786.275 888.619, 795.275 881.654, 806 873.482 C 816.725 865.310, 825.725 858.335, 826 857.982 C 826.275 857.628, 832.350 852.878, 839.500 847.426 C 846.650 841.974, 853.400 836.756, 854.500 835.831 C 857.117 833.629, 881.630 814.223, 885.866 811 C 893.951 804.847, 899.539 800.508, 900 800.025 C 900.275 799.736, 903.425 797.032, 907 794.015 C 910.575 790.999, 914.083 787.849, 914.795 787.015 C 917.265 784.126, 919.695 777.451, 921.899 767.500 C 923.117 762, 924.521 755.700, 925.018 753.500 C 925.516 751.300, 926.189 747.925, 926.515 746 C 926.841 744.075, 927.549 740.475, 928.089 738 C 928.629 735.525, 930.208 727.200, 931.598 719.500 C 932.987 711.800, 934.801 701.900, 935.629 697.500 C 936.456 693.100, 937.997 684.325, 939.052 678 C 940.108 671.675, 941.608 663.125, 942.386 659 C 943.163 654.875, 944.309 648.575, 944.933 645 C 945.557 641.425, 947.140 633.100, 948.451 626.500 C 951.281 612.255, 953.126 602.551, 955.962 587 C 957.115 580.675, 958.467 573.700, 958.966 571.500 C 959.465 569.300, 960.820 562.325, 961.977 556 C 963.135 549.675, 964.479 542.700, 964.964 540.500 C 965.450 538.300, 966.587 532.450, 967.491 527.500 C 968.396 522.550, 969.757 515.350, 970.516 511.500 C 971.276 507.650, 972.837 499.325, 973.987 493 C 975.136 486.675, 976.492 479.475, 977 477 C 977.508 474.525, 978.863 467.325, 980.012 461 C 983.067 444.173, 983.788 440.311, 985.422 432 C 986.233 427.875, 987.843 419.325, 988.998 413 C 992.118 395.927, 992.805 392.238, 994.395 384 C 995.925 376.075, 998.561 361.356, 1002.006 341.500 C 1004.382 327.805, 1005.344 322.567, 1007.422 312 C 1008.233 307.875, 1009.837 299.325, 1010.987 293 C 1012.136 286.675, 1013.486 279.475, 1013.988 277 C 1014.489 274.525, 1016.293 265.075, 1017.997 256 C 1019.701 246.925, 1021.723 236.350, 1022.489 232.500 C 1023.256 228.650, 1024.613 221.450, 1025.506 216.500 C 1027.343 206.307, 1029.511 194.782, 1031.526 184.500 C 1032.280 180.650, 1033.833 172.325, 1034.978 166 C 1036.122 159.675, 1037.461 152.700, 1037.953 150.500 C 1038.444 148.300, 1039.584 142.450, 1040.485 137.500 C 1041.386 132.550, 1042.773 125.350, 1043.567 121.500 C 1044.361 117.650, 1045.923 109.325, 1047.038 103 C 1048.153 96.675, 1049.484 89.700, 1049.995 87.500 C 1050.506 85.300, 1052.548 74.950, 1054.532 64.500 C 1056.517 54.050, 1059.459 38.856, 1061.070 30.735 C 1062.682 22.614, 1064 15.301, 1064 14.485 C 1064 12.821, 1075.567 12.834, 670.500 14.047 M 1175.393 14.174 C 1174.994 14.819, 1174.078 18.757, 1173.359 22.924 C 1172.639 27.091, 1171.397 33.875, 1170.599 38 C 1169.801 42.125, 1168.406 49.325, 1167.500 54 C 1166.593 58.675, 1165.258 65.650, 1164.533 69.500 C 1163.807 73.350, 1162.471 80.325, 1161.563 85 C 1160.655 89.675, 1159.222 97.100, 1158.379 101.500 C 1156.886 109.287, 1155.886 114.447, 1152.470 132 C 1149.759 145.927, 1148.202 154.042, 1146.619 162.500 C 1145.139 170.411, 1143.126 180.912, 1140.485 194.500 C 1139.736 198.350, 1138.401 205.325, 1137.518 210 C 1135.518 220.587, 1133.260 232.370, 1131.482 241.500 C 1130.732 245.350, 1129.422 252.100, 1128.571 256.500 C 1127.719 260.900, 1126.108 270.543, 1124.991 277.928 C 1122.799 292.414, 1122.891 292.876, 1128 293.059 C 1129.375 293.108, 1141.750 293.503, 1155.500 293.937 C 1169.250 294.371, 1181.287 295.061, 1182.250 295.470 C 1184.384 296.377, 1184.450 299.697, 1182.539 310 C 1179.739 325.095, 1177.761 335.672, 1176.369 343 C 1175.585 347.125, 1174.498 353.200, 1173.954 356.500 C 1173.410 359.800, 1172.530 364.525, 1171.999 367 C 1170.518 373.903, 1168.316 385.320, 1166.022 398 C 1164.878 404.325, 1163.533 411.300, 1163.034 413.500 C 1162.535 415.700, 1161.180 422.675, 1160.023 429 C 1158.865 435.325, 1157.521 442.300, 1157.036 444.500 C 1156.550 446.700, 1155.450 452.325, 1154.591 457 C 1152.667 467.466, 1149.581 483.639, 1146.482 499.500 C 1145.192 506.100, 1142.503 520.050, 1140.507 530.500 C 1138.510 540.950, 1135.811 554.900, 1134.510 561.500 C 1130.643 581.105, 1126.187 604.848, 1124.468 615 C 1122.803 624.837, 1121.164 633.759, 1118.498 647.500 C 1117.645 651.900, 1116.541 657.809, 1116.045 660.632 C 1115.549 663.455, 1114.017 671.330, 1112.641 678.132 C 1110.363 689.390, 1108.632 698.487, 1104.390 721.500 C 1103.579 725.900, 1102.513 731.300, 1102.021 733.500 C 1101.529 735.700, 1100.180 742.675, 1099.023 749 C 1097.865 755.325, 1096.521 762.300, 1096.036 764.500 C 1095.550 766.700, 1094.452 772.325, 1093.595 777 C 1091.596 787.908, 1088.322 805.085, 1087.020 811.500 C 1086.462 814.250, 1085.083 821.450, 1083.956 827.500 C 1082.829 833.550, 1081.512 840.300, 1081.030 842.500 C 1080.548 844.700, 1079.420 850.550, 1078.523 855.500 C 1077.626 860.450, 1076.267 867.425, 1075.502 871 C 1074.737 874.575, 1073.166 882.675, 1072.011 889 C 1070.856 895.325, 1069.489 902.525, 1068.972 905 C 1067.007 914.419, 1065.096 924.668, 1064.498 929 C 1063.920 933.194, 1061.372 946.913, 1059.020 958.500 C 1058.462 961.250, 1057.083 968.450, 1055.956 974.500 C 1054.829 980.550, 1053.495 987.300, 1052.991 989.500 C 1052.488 991.700, 1050.470 1002.050, 1048.507 1012.500 C 1046.544 1022.950, 1044.530 1033.300, 1044.032 1035.500 C 1043.534 1037.700, 1042.185 1044.675, 1041.034 1051 C 1039.882 1057.325, 1038.541 1064.075, 1038.054 1066 C 1037.566 1067.925, 1036.867 1071.525, 1036.500 1074 C 1036.133 1076.475, 1035.450 1080.075, 1034.982 1082 C 1034.514 1083.925, 1033.432 1089.325, 1032.578 1094 C 1031.723 1098.675, 1029.840 1108.350, 1028.393 1115.500 C 1026.946 1122.650, 1025.169 1131.650, 1024.443 1135.500 C 1023.718 1139.350, 1022.421 1146.100, 1021.562 1150.500 C 1020.703 1154.900, 1019.737 1159.850, 1019.415 1161.500 C 1019.093 1163.150, 1017.691 1170.125, 1016.299 1177 C 1009.817 1209.028, 1007.033 1224.061, 1007.015 1227.133 C 1007.004 1228.994, 1007.660 1229.976, 1009.250 1230.479 C 1010.487 1230.870, 1065.974 1231.428, 1132.553 1231.718 L 1253.606 1232.247 1255.946 1220.373 C 1257.233 1213.843, 1258.840 1205.575, 1259.517 1202 C 1260.801 1195.220, 1268.175 1158.179, 1269.969 1149.500 C 1271.117 1143.948, 1275.521 1122.074, 1277.520 1112 C 1278.230 1108.425, 1279.528 1101.900, 1280.405 1097.500 C 1281.282 1093.100, 1282.260 1088.150, 1282.578 1086.500 C 1282.896 1084.850, 1284.023 1079, 1285.081 1073.500 C 1286.140 1068, 1287.435 1061.700, 1287.960 1059.500 C 1288.485 1057.300, 1291.199 1043.575, 1293.990 1029 C 1296.782 1014.425, 1299.492 1000.700, 1300.013 998.500 C 1300.534 996.300, 1301.465 991.800, 1302.082 988.500 C 1302.700 985.200, 1303.788 979.575, 1304.500 976 C 1305.212 972.425, 1306.314 966.800, 1306.948 963.500 C 1307.582 960.200, 1309.183 952.100, 1310.505 945.500 C 1311.827 938.900, 1313.601 929.450, 1314.448 924.500 C 1315.295 919.550, 1316.662 912.125, 1317.487 908 C 1318.312 903.875, 1319.402 898.250, 1319.909 895.500 C 1321.864 884.908, 1327.126 858.312, 1328.021 854.500 C 1328.537 852.300, 1329.457 847.800, 1330.065 844.500 C 1331.306 837.762, 1333.100 828.363, 1335.409 816.500 C 1336.265 812.100, 1337.431 806.025, 1338 803 C 1338.569 799.975, 1339.463 795.700, 1339.988 793.500 C 1340.513 791.300, 1341.875 784.325, 1343.015 778 C 1344.155 771.675, 1345.521 764.475, 1346.049 762 C 1347.042 757.350, 1351.233 735.747, 1354.876 716.500 C 1357.713 701.507, 1362.725 675.597, 1363.967 669.500 C 1364.528 666.750, 1365.881 659.775, 1366.976 654 C 1369.158 642.485, 1370.174 637.298, 1372.461 626 C 1373.297 621.875, 1374.429 615.125, 1374.977 611 C 1375.526 606.875, 1376.402 601.700, 1376.924 599.500 C 1377.446 597.300, 1378.820 590.325, 1379.977 584 C 1381.135 577.675, 1382.485 570.700, 1382.977 568.500 C 1383.470 566.300, 1384.820 559.325, 1385.977 553 C 1387.135 546.675, 1388.495 539.700, 1388.999 537.500 C 1389.504 535.300, 1391.307 526.075, 1393.006 517 C 1394.705 507.925, 1396.718 497.575, 1397.478 494 C 1398.239 490.425, 1399.818 482.325, 1400.987 476 C 1402.155 469.675, 1403.539 462.475, 1404.061 460 C 1405.666 452.391, 1410.748 426.124, 1412.960 414 C 1414.114 407.675, 1415.478 400.700, 1415.991 398.500 C 1416.503 396.300, 1417.189 392.925, 1417.515 391 C 1417.841 389.075, 1418.536 385.475, 1419.059 383 C 1420.082 378.160, 1422.888 363.769, 1430.950 322 C 1433.764 307.425, 1436.495 293.700, 1437.020 291.500 C 1437.545 289.300, 1438.465 283.688, 1439.065 279.028 C 1439.665 274.369, 1440.314 270.300, 1440.508 269.987 C 1440.701 269.675, 1441.551 265.612, 1442.397 260.959 C 1443.242 256.307, 1444.801 248.225, 1445.861 243 C 1446.920 237.775, 1448.753 228.325, 1449.934 222 C 1451.115 215.675, 1452.498 208.700, 1453.008 206.500 C 1453.868 202.785, 1457.413 184.904, 1460.541 168.500 C 1462.447 158.505, 1464.978 145.553, 1466.500 138 C 1467.944 130.838, 1470.416 118.303, 1472.515 107.500 C 1475.193 93.723, 1477.010 84.452, 1477.609 81.500 C 1484.296 48.587, 1490.111 15.009, 1489.341 13.750 C 1489.088 13.338, 1418.510 13, 1332.500 13 C 1213.899 13, 1175.943 13.284, 1175.393 14.174 M 502.500 213.039 C 419.763 213.642, 408.783 213.903, 403 215.410 C 394.712 217.569, 382.515 222.155, 378 224.810 C 376.075 225.942, 372.889 227.751, 370.920 228.829 C 360.019 234.801, 345.987 245.790, 335.659 256.443 C 322.519 269.996, 314.414 282.285, 305.940 301.500 C 303.839 306.265, 301.048 316.151, 299.483 324.367 C 297 337.413, 297.798 369.070, 300.909 380.881 C 310.755 418.271, 328.361 438.885, 365.643 456.674 L 377.159 462.169 551.412 462.741 C 722.182 463.302, 725.681 463.276, 726.410 461.407 C 727.125 459.577, 729.970 445.876, 737.500 408 C 738.429 403.325, 739.776 396.575, 740.492 393 C 741.209 389.425, 742.300 383.800, 742.918 380.500 C 743.535 377.200, 744.462 372.700, 744.978 370.500 C 746.481 364.085, 749.077 350.226, 750.597 340.500 C 751.961 331.772, 752.916 326.383, 756.449 307.500 C 762.206 276.725, 763.210 263.386, 760.500 253.692 C 755.837 237.016, 746.553 226.338, 729.168 217.658 L 717.837 212 656.668 212.181 C 623.026 212.280, 553.650 212.666, 502.500 213.039" stroke="none" fill="#000000" fill-rule="evenodd"/>
</svg>