<svg xmlns="http://www.w3.org/2000/svg" viewBox="0 0 512 512">
	<!-- coer91.styles -->
	<path d="M 246.746 1.022 C 240.910 2.496, 233.243 6.735, 228.496 11.111 C 225.527 13.848, 222.198 18.918, 217.871 27.298 C 212.610 37.487, 210.324 40.738, 204.014 47.006 C 187.157 63.751, 165.563 69.521, 140.739 63.913 C 127.983 61.031, 119.281 61.602, 110.562 65.895 C 98.672 71.748, 90.407 82.726, 88.033 95.819 C 86.508 104.231, 88.022 111.940, 93.451 123.405 C 98.925 134.965, 101 143.416, 101 154.154 C 101 164.853, 98.247 175.952, 93.340 185.037 C 88.620 193.776, 83.525 199.698, 74.620 206.800 C 65.182 214.327, 63.449 216.323, 59.686 224 C 56.718 230.054, 56.500 231.221, 56.500 241.021 C 56.500 250.876, 56.706 251.961, 59.759 258.163 C 63.339 265.434, 69.110 271.808, 75.510 275.559 C 77.790 276.895, 84.935 279.331, 91.389 280.972 C 106.977 284.936, 115.480 289.481, 125.095 298.989 C 138.862 312.603, 143.699 324.706, 144.886 348.511 C 145.535 361.536, 145.971 364.248, 148.177 369.011 C 157.427 388.978, 182.593 398.335, 201.563 388.862 C 204.004 387.643, 209.263 384.037, 213.250 380.850 C 239.674 359.727, 272.326 359.727, 298.750 380.850 C 302.737 384.037, 307.996 387.643, 310.437 388.862 C 329.407 398.335, 354.573 388.978, 363.823 369.011 C 366.029 364.248, 366.465 361.536, 367.114 348.511 C 368.301 324.706, 373.138 312.603, 386.905 298.989 C 396.520 289.481, 405.023 284.936, 420.611 280.972 C 427.065 279.331, 434.210 276.895, 436.490 275.559 C 442.890 271.808, 448.661 265.434, 452.241 258.163 C 455.294 251.961, 455.500 250.876, 455.500 241.021 C 455.500 231.221, 455.282 230.054, 452.314 224 C 448.551 216.323, 446.818 214.327, 437.380 206.800 C 428.475 199.698, 423.380 193.776, 418.660 185.037 C 413.753 175.952, 411 164.853, 411 154.154 C 411 143.416, 413.075 134.965, 418.549 123.405 C 423.978 111.940, 425.492 104.231, 423.967 95.819 C 421.593 82.726, 413.328 71.748, 401.438 65.895 C 392.719 61.602, 384.017 61.031, 371.261 63.913 C 346.437 69.521, 324.843 63.751, 307.986 47.006 C 301.676 40.738, 299.390 37.487, 294.129 27.298 C 286.913 13.325, 282.472 8.520, 272.429 3.820 C 265.327 0.497, 253.796 -0.760, 246.746 1.022 M 240 73.607 C 220.011 77.261, 211.547 79.821, 198.653 86.115 C 137.642 115.893, 109.190 187.092, 132.938 250.563 C 147.943 290.667, 182.464 321.331, 224.514 331.906 C 259.197 340.629, 297.723 334.149, 327.215 314.632 C 347.339 301.316, 361.943 285.336, 372.278 265.324 C 381.398 247.667, 385.311 234.030, 386.952 214.191 C 392.320 149.288, 347.712 89.771, 283 75.498 C 275.738 73.896, 245.655 72.573, 240 73.607 M 243.867 98.026 C 213.486 101.445, 184.299 119.214, 167.528 144.500 C 160.891 154.508, 157.961 160.381, 154.631 170.351 C 136.975 223.214, 163.816 282.238, 214.981 303.059 C 230.167 309.239, 236.838 310.440, 256 310.440 C 275.162 310.440, 281.833 309.239, 297.019 303.059 C 334.669 287.737, 360.662 250.509, 362.706 208.978 C 364.630 169.889, 345.396 134.258, 310.500 112.265 C 303.516 107.864, 286.930 101.425, 278 99.648 C 268.043 97.667, 253.284 96.966, 243.867 98.026 M 270 193.384 C 253.775 205.249, 240.275 214.956, 240 214.955 C 239.725 214.953, 236.350 210.465, 232.500 204.980 C 227.737 198.194, 224.419 194.492, 222.118 193.394 C 214.676 189.844, 206.232 194.765, 205.280 203.205 C 204.804 207.432, 205.164 208.220, 212.547 219.077 C 224.440 236.565, 227.878 240.955, 231.327 243.058 C 235.343 245.507, 238.122 245.504, 242.790 243.047 C 250.524 238.977, 311.471 193.450, 313.805 190 C 318.849 182.543, 313.844 173.164, 304.343 172.268 L 299.500 171.811 270 193.384 M 236.680 393.496 C 234.029 394.812, 228.847 398.352, 225.165 401.365 C 212.149 412.013, 198.797 416.958, 182.980 416.985 C 165.657 417.015, 146.594 408.818, 135.771 396.685 C 134.270 395.002, 132.861 393.822, 132.640 394.063 C 131.435 395.376, 99 468.477, 99 469.881 C 99 472.768, 101.968 476, 104.619 476 C 105.997 476, 113.912 474.145, 122.208 471.878 C 139.197 467.235, 143.303 467.161, 152.414 471.332 C 160.755 475.151, 164.474 479.727, 172.376 495.898 C 178.161 507.737, 180.002 510.652, 182.173 511.405 C 184.139 512.087, 185.460 511.927, 187.173 510.799 C 188.828 509.709, 196.258 494.295, 212.921 457.383 C 225.803 428.847, 237.829 402.238, 239.646 398.250 C 241.463 394.262, 242.623 391.024, 242.225 391.053 C 241.826 391.082, 239.331 392.181, 236.680 393.496 M 272.354 398.250 C 274.171 402.238, 286.197 428.847, 299.079 457.383 C 315.742 494.295, 323.172 509.709, 324.827 510.799 C 326.540 511.927, 327.861 512.087, 329.827 511.405 C 331.998 510.652, 333.839 507.737, 339.624 495.898 C 347.526 479.727, 351.245 475.151, 359.586 471.332 C 368.697 467.161, 372.803 467.235, 389.792 471.878 C 398.088 474.145, 406.003 476, 407.381 476 C 410.032 476, 413 472.768, 413 469.881 C 413 468.477, 380.565 395.376, 379.360 394.063 C 379.139 393.822, 377.730 395.002, 376.229 396.685 C 365.406 408.818, 346.343 417.015, 329.020 416.985 C 313.032 416.957, 300.210 412.158, 286.360 401.016 C 280.496 396.299, 271.523 391, 269.398 391 C 269.207 391, 270.537 394.262, 272.354 398.250" stroke="none" fill="#000000" fill-rule="evenodd"/>
</svg>