<svg xmlns="http://www.w3.org/2000/svg" viewBox="0 0 256 256">
	<!-- coer91.styles -->
	<path d="M 118.332 1.790 C 109.453 4.964, 105.392 8.936, 98.808 20.887 C 97.878 22.576, 95.628 24.898, 93.808 26.046 C 90.865 27.904, 89.617 28.056, 82.500 27.422 C 71.165 26.413, 66.320 26.807, 60.793 29.184 C 54.641 31.831, 46.755 40.336, 44.606 46.643 C 42.662 52.349, 42.593 61.237, 44.457 66 C 48.950 77.481, 49.068 78.031, 47.951 82.321 C 47.164 85.342, 45.236 88.072, 40.990 92.175 C 31.287 101.551, 27.952 110.604, 30.065 121.829 C 32.150 132.908, 40.757 142.303, 51.346 145.058 C 62.246 147.894, 66.090 151.853, 67.095 161.278 L 67.759 167.500 54.824 196.360 C 41.043 227.107, 40.508 229.141, 45.302 232.499 C 48.374 234.651, 50.159 234.442, 65.343 230.151 L 78.965 226.302 85.194 239.245 C 92.915 255.288, 96.748 258.667, 102.585 254.578 C 103.742 253.768, 109.492 242.361, 115.954 228.058 C 122.190 214.254, 127.483 203.150, 127.716 203.382 C 127.948 203.615, 133.302 214.537, 139.613 227.653 C 145.924 240.769, 152.218 252.513, 153.600 253.750 C 156.612 256.448, 160.022 256.632, 162.874 254.250 C 164.026 253.288, 167.495 246.875, 170.583 240 C 173.671 233.125, 176.490 227.187, 176.849 226.804 C 177.207 226.421, 183.898 227.711, 191.718 229.670 C 200.278 231.815, 206.937 232.982, 208.450 232.602 C 210.863 231.996, 214 227.562, 214 224.757 C 214 224.019, 208.185 211.410, 201.078 196.738 L 188.156 170.061 188.874 162.542 C 189.907 151.730, 193.251 148.025, 204.654 145.058 C 215.243 142.303, 223.850 132.908, 225.935 121.829 C 228.048 110.604, 224.713 101.551, 215.010 92.175 C 210.764 88.072, 208.836 85.342, 208.049 82.321 C 206.932 78.031, 207.050 77.481, 211.543 66 C 213.407 61.237, 213.338 52.349, 211.394 46.643 C 209.245 40.336, 201.359 31.831, 195.207 29.184 C 189.654 26.796, 184.763 26.406, 173.500 27.456 C 166.075 28.148, 165.251 28.031, 162.033 25.833 C 160.126 24.530, 157.057 20.773, 155.214 17.482 C 150.833 9.664, 147.708 6.494, 141.286 3.351 C 134.235 -0.098, 125.313 -0.705, 118.332 1.790 M 121.210 17.667 C 119.009 18.752, 116.637 21.475, 114.043 25.894 C 109.534 33.578, 105.288 37.868, 99 41.090 C 94.352 43.472, 88.880 43.884, 74.426 42.937 C 69.786 42.634, 67.708 42.961, 65.628 44.324 C 59.084 48.612, 57.311 56.807, 61.155 65 C 62.542 67.954, 63.434 72.299, 63.754 77.648 C 64.181 84.808, 63.941 86.445, 61.773 91.148 C 60.316 94.310, 56.962 98.751, 53.577 102 C 47.008 108.304, 45 111.594, 45 116.049 C 45 123.385, 49.861 128.583, 58.994 131.013 C 66.074 132.897, 70.377 135.513, 75.180 140.855 C 80.371 146.629, 82.998 153.684, 83.004 161.865 C 83.008 168.481, 85.325 173.008, 90.241 176.005 C 95.727 179.350, 100.686 178.669, 108.579 173.484 C 116.493 168.286, 120.319 167.011, 128 167.011 C 135.681 167.011, 139.507 168.286, 147.421 173.484 C 155.314 178.669, 160.273 179.350, 165.759 176.005 C 170.675 173.008, 172.992 168.481, 172.996 161.865 C 173.002 153.684, 175.629 146.629, 180.820 140.855 C 185.623 135.513, 189.926 132.897, 197.006 131.013 C 206.139 128.583, 211 123.385, 211 116.049 C 211 111.594, 208.992 108.304, 202.423 102 C 199.038 98.751, 195.684 94.310, 194.227 91.148 C 192.059 86.445, 191.819 84.808, 192.246 77.648 C 192.566 72.299, 193.458 67.954, 194.845 65 C 198.689 56.807, 196.916 48.612, 190.372 44.324 C 188.292 42.961, 186.214 42.634, 181.574 42.937 C 167.120 43.884, 161.648 43.472, 157 41.090 C 150.709 37.867, 146.465 33.578, 141.947 25.879 C 136.417 16.453, 129.350 13.655, 121.210 17.667 M 113 43.579 C 103.204 46.157, 95.007 51, 86.899 59 C 63.404 82.185, 63.179 117.997, 86.380 141.524 C 109.579 165.048, 146.421 165.048, 169.620 141.524 C 187.770 123.119, 191.845 97.511, 180.364 74 C 173.412 59.764, 158.203 47.507, 142.540 43.518 C 135.114 41.627, 120.303 41.657, 113 43.579 M 121.293 58.021 C 105.267 60.329, 90.707 73.504, 86.552 89.460 C 77.403 124.595, 113.393 154.639, 146.226 139.275 C 162.138 131.829, 172.045 114.927, 170.712 97.500 C 168.781 72.260, 146.428 54.403, 121.293 58.021 M 142.390 86.631 C 140.250 88.078, 134.772 91.967, 130.217 95.272 L 121.933 101.282 118.389 97.141 C 115.515 93.784, 114.197 93, 111.422 93 C 106.979 93, 104 95.944, 104 100.334 C 104 102.612, 105.302 105.543, 108.107 109.584 C 117.467 123.066, 118.446 123.150, 134.159 111.830 C 140.397 107.336, 147.593 102.151, 150.152 100.307 C 156.826 95.496, 157.959 90.868, 153.545 86.455 C 150.391 83.300, 147.241 83.349, 142.390 86.631 M 76.626 186.796 C 76.353 187.238, 73.406 193.591, 70.077 200.913 C 65.428 211.139, 64.427 214.115, 65.762 213.745 C 88.310 207.493, 87.325 207.272, 93.284 219.939 C 95.603 224.868, 97.725 228.910, 98 228.920 C 98.392 228.935, 115.246 192.174, 116.889 187.720 C 117.103 187.140, 115.833 187.695, 114.067 188.953 C 104.702 195.621, 89.526 195.452, 80.516 188.580 C 78.650 187.157, 76.899 186.354, 76.626 186.796 M 143.921 200.250 C 147.655 208.088, 152.391 217.832, 154.445 221.904 L 158.180 229.308 161.685 221.404 C 165.393 213.042, 168.799 209, 172.139 209 C 173.254 209, 177.781 209.923, 182.199 211.051 C 186.617 212.179, 190.409 212.925, 190.625 212.708 C 191.158 212.176, 179.217 187, 178.431 187 C 178.089 187, 176.614 187.847, 175.154 188.882 C 165.727 195.565, 150.497 195.430, 141.522 188.584 C 139.658 187.163, 137.908 186, 137.632 186 C 137.356 186, 140.186 192.412, 143.921 200.250" stroke="none" fill="#000000" fill-rule="evenodd"/>
</svg>